<svg width="71" height="51" viewBox="0 0 71 51" fill="none" xmlns="http://www.w3.org/2000/svg">
<title>CodeCreative Facebook Profile</title>
<path d="M50.7265 35.9737C50.7261 33.1238 49.8802 30.3336 48.2892 27.9336C46.6981 25.5336 44.4284 23.6242 41.7488 22.4314C39.0691 21.2387 36.0918 20.8126 33.1693 21.2035C30.2467 21.5944 27.5013 22.786 25.2581 24.6372C23.0149 26.4885 21.3678 28.9218 20.5117 31.6491C19.6557 34.3765 19.6267 37.2837 20.428 40.0265C21.2294 42.7693 22.8275 45.2328 25.0333 47.1256C27.2392 49.0183 29.9602 50.2609 32.8744 50.7062V40.2842H28.9569V35.9737H32.8765V32.6878C32.8765 28.95 35.1821 26.8854 38.708 26.8854C39.8659 26.901 41.0211 26.9982 42.1643 27.1763V30.847H40.2154C39.8835 30.8047 39.5461 30.835 39.2281 30.9357C38.91 31.0364 38.6195 31.2048 38.3779 31.4285C38.1363 31.6523 37.9499 31.9256 37.8324 32.2284C37.715 32.5311 37.6695 32.8554 37.6992 33.1774V35.9737H41.9821L41.2971 40.2842H37.6992V50.7062C41.3312 50.1513 44.6389 48.3625 47.027 45.6617C49.4152 42.961 50.7271 39.5255 50.7265 35.9737Z" fill="#5EC231"/>
<path class="lightburst" d="M0.353905 38.2377L8.82153 38.2377C8.7342 37.3605 8.68949 36.4708 8.68949 35.5706C8.68949 34.6705 8.73419 33.7809 8.82149 32.9039H0.353868C0.287626 33.7841 0.253906 34.6734 0.253906 35.5705C0.253906 36.4679 0.287639 37.3574 0.353905 38.2377Z" fill="#5EC231"/>
<path class="lightburst" d="M8.70087 12.7535L14.6885 18.7414C15.8166 17.362 17.0806 16.098 18.4599 14.9698L12.4723 8.98183C11.1219 10.1418 9.8608 11.403 8.70087 12.7535Z" fill="#5EC231"/>
<path class="lightburst" d="M32.6219 0.634143V9.10222C33.4989 9.01492 34.3884 8.97022 35.2884 8.97022C36.1886 8.97022 37.0783 9.01494 37.9555 9.10227V0.634188C37.0751 0.567916 36.1857 0.53418 35.2884 0.53418C34.3913 0.53418 33.502 0.5679 32.6219 0.634143Z" fill="#5EC231"/>
<path class="lightburst" d="M58.1045 8.98184L52.1169 14.9698C53.4962 16.098 54.7601 17.362 55.8883 18.7414L61.8759 12.7535C60.7159 11.403 59.4549 10.1418 58.1045 8.98184Z" fill="#5EC231"/>
<path class="lightburst" d="M70.2229 32.9039H61.7553C61.8426 33.7809 61.8873 34.6705 61.8873 35.5706C61.8873 36.4708 61.8426 37.3605 61.7553 38.2377L70.2228 38.2377C70.2891 37.3574 70.3228 36.4679 70.3228 35.5705C70.3228 34.6734 70.2891 33.7841 70.2229 32.9039Z" fill="#5EC231"/>
</svg>
