<svg width="71" height="49" viewBox="0 0 71 49" fill="none" xmlns="http://www.w3.org/2000/svg">
<title>Travis Toulson LinkedIn Profile</title>
<path d="M48.0432 22.3838H23.7726C23.1513 22.3838 22.6543 22.8816 22.6543 23.5038V47.8538C22.6543 48.4346 23.1513 48.9324 23.7726 48.9324H48.0846C48.7059 48.9324 49.2029 48.4346 49.2029 47.8123V23.5038C49.1615 22.8816 48.6644 22.3838 48.0432 22.3838ZM30.5236 44.9916H26.589V32.3395H30.5236V44.9916ZM28.5356 30.5973C27.293 30.5973 26.2576 29.5602 26.2576 28.3157C26.2576 27.0713 27.293 26.0342 28.5356 26.0342C29.7781 26.0342 30.8135 27.0713 30.8135 28.3157C30.8135 29.6017 29.8195 30.5973 28.5356 30.5973ZM45.2268 44.9916H41.2921V38.8522C41.2921 37.4003 41.2507 35.4921 39.2627 35.4921C37.2332 35.4921 36.9019 37.11 36.9019 38.7278V44.9916H32.9672V32.3395H36.7362V34.0818H36.7776C37.3161 33.0862 38.6 32.0491 40.5052 32.0491C44.4813 32.0491 45.2268 34.6625 45.2268 38.064V44.9916Z" fill="#5EC231"/>
<path class="lightburst" d="M0.99453 38.0112L9.46215 38.0112C9.37483 37.134 9.33011 36.2442 9.33011 35.344C9.33011 34.444 9.37481 33.5544 9.46211 32.6773H0.994493C0.928251 33.5575 0.894531 34.4468 0.894531 35.344C0.894531 36.2413 0.928264 37.1308 0.99453 38.0112Z" fill="#5EC231"/>
<path class="lightburst" d="M9.3415 12.5269L15.3291 18.5149C16.4573 17.1355 17.7212 15.8714 19.1005 14.7432L13.1129 8.75527C11.7625 9.91528 10.5014 11.1764 9.3415 12.5269Z" fill="#5EC231"/>
<path class="lightburst" d="M33.2625 0.40758V8.87566C34.1395 8.78836 35.0291 8.74366 35.929 8.74366C36.8292 8.74366 37.7189 8.78837 38.5961 8.87571V0.407626C37.7157 0.341353 36.8263 0.307617 35.929 0.307617C35.0319 0.307617 34.1427 0.341338 33.2625 0.40758Z" fill="#5EC231"/>
<path class="lightburst" d="M58.7451 8.75527L52.7575 14.7432C54.1368 15.8714 55.4008 17.1354 56.5289 18.5148L62.5165 12.5269C61.3566 11.1764 60.0955 9.91528 58.7451 8.75527Z" fill="#5EC231"/>
<path class="lightburst" d="M70.8635 32.6773H62.396C62.4833 33.5544 62.528 34.444 62.528 35.344C62.528 36.2442 62.4832 37.134 62.3959 38.0112L70.8635 38.0112C70.9297 37.1308 70.9635 36.2413 70.9635 35.344C70.9635 34.4468 70.9297 33.5575 70.8635 32.6773Z" fill="#5EC231"/>
</svg>
