<svg width="71" height="50" viewBox="0 0 71 50" fill="none" xmlns="http://www.w3.org/2000/svg">
<title>CodeCreative Live Twitch Channel</title>
<path d="M23.8357 21.5186L21.834 26.1357V45.5277H28.7V49.2214H32.2387L36.0237 45.5277H41.0588L48.3826 38.602V21.5186H23.8357ZM45.6362 37.2168L41.5165 41.3723H35.1083L31.4464 45.066V41.3723H25.9536V23.8271H45.6362V37.2168Z" fill="#5EC231"/>
<path d="M41.5165 28.906H39.2279V35.8317H41.5165V28.906Z" fill="#5EC231"/>
<path d="M35.1083 28.906H32.8196V35.8317H35.1083V28.906Z" fill="#5EC231"/>
<path class="lightburst" d="M0.174218 37.7231L8.64184 37.7231C8.55451 36.8459 8.5098 35.9561 8.5098 35.0559C8.5098 34.1559 8.5545 33.2663 8.6418 32.3892H0.17418C0.107939 33.2694 0.0742188 34.1587 0.0742188 35.0559C0.0742188 35.9532 0.107951 36.8427 0.174218 37.7231Z" fill="#5EC231"/>
<path class="lightburst" d="M8.52118 12.2388L14.5088 18.2268C15.637 16.8474 16.9009 15.5833 18.2802 14.4551L12.2926 8.46718C10.9422 9.62719 9.68112 10.8883 8.52118 12.2388Z" fill="#5EC231"/>
<path class="lightburst" d="M32.4422 0.119494V8.58757C33.3192 8.50027 34.2087 8.45557 35.1087 8.45557C36.0089 8.45557 36.8986 8.50029 37.7758 8.58762V0.11954C36.8954 0.0532671 36.006 0.0195312 35.1087 0.0195312C34.2116 0.0195312 33.3223 0.0532517 32.4422 0.119494Z" fill="#5EC231"/>
<path class="lightburst" d="M57.9248 8.46719L51.9372 14.4551C53.3165 15.5833 54.5805 16.8473 55.7086 18.2267L61.6962 12.2388C60.5363 10.8883 59.2752 9.6272 57.9248 8.46719Z" fill="#5EC231"/>
<path class="lightburst" d="M70.0432 32.3892H61.5756C61.6629 33.2663 61.7076 34.1559 61.7076 35.0559C61.7076 35.9561 61.6629 36.8459 61.5756 37.7231L70.0431 37.7231C70.1094 36.8427 70.1431 35.9532 70.1431 35.0559C70.1431 34.1587 70.1094 33.2694 70.0432 32.3892Z" fill="#5EC231"/>
</svg>
