<svg width="71" height="48" viewBox="0 0 71 48" fill="none" xmlns="http://www.w3.org/2000/svg">
<title>CodeCreative Twitter Profile</title>
<path d="M50.9062 25.336C49.7483 25.8111 48.542 26.1911 47.2876 26.3336C48.5903 25.5735 49.6035 24.3384 50.086 22.8657C48.8798 23.5783 47.5288 24.1008 46.0814 24.3859C44.8752 23.1507 43.2347 22.3906 41.4013 22.3906C37.8792 22.3906 35.0808 25.1935 35.0808 28.6139C35.0808 29.089 35.129 29.564 35.2255 30.0391C29.9665 29.8016 25.2864 27.2837 22.1985 23.5308C21.6678 24.4334 21.33 25.526 21.33 26.6662C21.33 28.8514 22.4398 30.7517 24.1284 31.8443C23.067 31.7968 22.102 31.5118 21.2818 31.0842C21.2818 31.1317 21.2818 31.1317 21.2818 31.1792C21.2818 34.2196 23.453 36.7374 26.3479 37.3075C25.8171 37.45 25.2382 37.545 24.6592 37.545C24.2732 37.545 23.839 37.4975 23.453 37.45C24.2732 39.9203 26.5891 41.7255 29.3875 41.7731C27.2163 43.4358 24.4662 44.4334 21.523 44.4334C20.9923 44.4334 20.5098 44.3859 20.0273 44.3384C22.8257 46.0486 26.1549 47.0937 29.7252 47.0937C41.4013 47.0937 47.7701 37.5925 47.7701 29.3265C47.7701 29.0415 47.7701 28.8039 47.7701 28.5189C48.9763 27.6638 50.0377 26.5711 50.9062 25.336Z" fill="#5EC231"/>
<path class="lightburst" d="M0.533593 37.85L9.00122 37.85C8.91389 36.9728 8.86917 36.0831 8.86917 35.1829C8.86917 34.2828 8.91387 33.3932 9.00117 32.5162H0.533555C0.467314 33.3964 0.433594 34.2857 0.433594 35.1828C0.433594 36.0802 0.467326 36.9697 0.533593 37.85Z" fill="#5EC231"/>
<path class="lightburst" d="M8.88056 12.3658L14.8682 18.3537C15.9963 16.9743 17.2603 15.7103 18.6396 14.5821L12.652 8.59413C11.3015 9.75414 10.0405 11.0153 8.88056 12.3658Z" fill="#5EC231"/>
<path class="lightburst" d="M32.8016 0.246447V8.71452C33.6786 8.62722 34.5681 8.58252 35.4681 8.58252C36.3683 8.58252 37.258 8.62724 38.1352 8.71458V0.246493C37.2548 0.18022 36.3654 0.146484 35.4681 0.146484C34.5709 0.146484 33.6817 0.180205 32.8016 0.246447Z" fill="#5EC231"/>
<path class="lightburst" d="M58.2842 8.59414L52.2966 14.5821C53.6759 15.7103 54.9398 16.9743 56.068 18.3537L62.0556 12.3658C60.8956 11.0153 59.6346 9.75415 58.2842 8.59414Z" fill="#5EC231"/>
<path class="lightburst" d="M70.4026 32.5162H61.935C62.0223 33.3932 62.067 34.2828 62.067 35.1829C62.067 36.0831 62.0223 36.9728 61.935 37.85L70.4025 37.85C70.4688 36.9697 70.5025 36.0802 70.5025 35.1828C70.5025 34.2857 70.4688 33.3964 70.4026 32.5162Z" fill="#5EC231"/>
</svg>
