<svg width="71" height="47" viewBox="0 0 71 47" fill="none" xmlns="http://www.w3.org/2000/svg">
<title>CodeCreative Youtube Channel</title>
<path d="M52.515 29.5636C52.515 29.5636 52.212 27.424 51.2525 26.4514C50.0405 25.2357 48.6265 25.1871 48.0205 25.1385C43.425 24.8467 36.658 24.8467 36.658 24.8467C36.658 24.8467 29.891 24.8467 25.346 25.1385C24.6895 25.1871 23.326 25.2357 22.114 26.4514C21.1545 27.3754 20.8515 29.5636 20.8515 29.5636C20.8515 29.5636 20.498 32.0923 20.498 34.621V37.0038C20.498 39.5325 20.801 42.0611 20.801 42.0611C20.801 42.0611 21.104 44.2008 22.0635 45.1734C23.2755 46.3891 24.8915 46.3891 25.649 46.4863C28.2245 46.7295 36.658 46.7781 36.658 46.7781C36.658 46.7781 43.425 46.7781 47.97 46.4377C48.6265 46.3891 49.99 46.3405 51.202 45.1247C52.1615 44.2008 52.4645 42.0125 52.4645 42.0125C52.4645 42.0125 52.818 39.4838 52.818 36.9552V34.5724C52.818 32.0923 52.515 29.5636 52.515 29.5636ZM33.325 39.8242V31.0711L42.0615 35.4477L33.325 39.8242Z" fill="#5EC231"/>
<path class="lightburst" d="M0.974999 38.1665L9.44262 38.1665C9.3553 37.2892 9.31058 36.3995 9.31058 35.4993C9.31058 34.5992 9.35528 33.7096 9.44258 32.8326H0.974961C0.90872 33.7128 0.875 34.6021 0.875 35.4993C0.875 36.3966 0.908733 37.2861 0.974999 38.1665Z" fill="#5EC231"/>
<path class="lightburst" d="M9.32196 12.6822L15.3096 18.6701C16.4377 17.2907 17.7017 16.0267 19.081 14.8985L13.0934 8.91054C11.7429 10.0705 10.4819 11.3317 9.32196 12.6822Z" fill="#5EC231"/>
<path class="lightburst" d="M33.243 0.562854V9.03093C34.12 8.94363 35.0095 8.89893 35.9095 8.89893C36.8097 8.89893 37.6994 8.94365 38.5766 9.03098V0.562899C37.6962 0.496626 36.8068 0.462891 35.9095 0.462891C35.0124 0.462891 34.1231 0.496611 33.243 0.562854Z" fill="#5EC231"/>
<path class="lightburst" d="M58.7256 8.91055L52.738 14.8985C54.1173 16.0267 55.3812 17.2907 56.5094 18.6701L62.497 12.6822C61.337 11.3317 60.076 10.0706 58.7256 8.91055Z" fill="#5EC231"/>
<path class="lightburst" d="M70.844 32.8326H62.3764C62.4637 33.7096 62.5084 34.5992 62.5084 35.4993C62.5084 36.3995 62.4637 37.2892 62.3764 38.1665L70.8439 38.1665C70.9102 37.2861 70.9439 36.3966 70.9439 35.4993C70.9439 34.6021 70.9102 33.7128 70.844 32.8326Z" fill="#5EC231"/>
</svg>
